<svg width="270" height="268" viewBox="0 0 270 268" fill="none" xmlns="http://www.w3.org/2000/svg">
<mask id="mask0_48_6050" style="mask-type:luminance" maskUnits="userSpaceOnUse" x="25" y="58" width="226" height="129">
<path fill-rule="evenodd" clip-rule="evenodd" d="M80.852 80.872H51.9C48.138 80.872 45.061 83.959 45.061 87.733C45.061 91.507 48.138 94.594 51.9 94.594H66.634H70.952C74.714 94.594 77.791 97.682 77.791 101.456C77.791 103.342 77.02 105.061 75.78 106.3C74.545 107.545 72.831 108.318 70.952 108.318H61.74H56.654H31.839C28.077 108.318 25 111.406 25 115.179C25 118.952 28.077 122.04 31.839 122.04H49.604C44.241 134.685 41.271 148.598 41.271 163.21C41.271 168.511 41.663 173.721 42.415 178.812C42.729 180.939 43.108 183.048 43.551 185.134C56.454 183.154 70.141 181.561 84.43 180.399L85.505 181.383L86.517 180.235C103.684 178.895 121.702 178.181 140.286 178.181C179.77 178.181 216.718 181.401 248.309 187C249.527 181.704 250.348 176.255 250.736 170.684C250.913 168.214 251 165.721 251 163.21C251 105.102 204.053 58 146.136 58C121.452 58 98.765 66.557 80.852 80.872Z" fill="white"/>
</mask>
<g mask="url(#mask0_48_6050)">
<path fill-rule="evenodd" clip-rule="evenodd" d="M20 192H256V53H20V192Z" fill="#F1F2F7"/>
</g>
<mask id="mask1_48_6050" style="mask-type:luminance" maskUnits="userSpaceOnUse" x="0" y="108" width="18" height="14">
<path fill-rule="evenodd" clip-rule="evenodd" d="M6.927 108C3.117 108 0 111.151 0 115C0 118.849 3.117 122 6.927 122H11.072C14.883 122 18 118.849 18 115C18 111.151 14.883 108 11.072 108H6.927Z" fill="white"/>
</mask>
<g mask="url(#mask1_48_6050)">
<path fill-rule="evenodd" clip-rule="evenodd" d="M-5 127H23V103H-5V127Z" fill="#F1F2F7"/>
</g>
<mask id="mask2_48_6050" style="mask-type:luminance" maskUnits="userSpaceOnUse" x="43" y="178" width="227" height="90">
<path fill-rule="evenodd" clip-rule="evenodd" d="M86.3652 180.373L85.3522 181.514L84.2772 180.536C69.9922 181.691 56.3092 183.272 43.4082 185.241C53.4592 232.523 95.5592 268 145.968 268C169.571 268 191.35 260.218 208.877 247.091H227.534C231.294 247.091 234.371 244.022 234.371 240.273C234.371 238.401 233.6 236.691 232.361 235.46C231.125 234.223 229.411 233.455 227.534 233.455H219.42C215.659 233.455 212.582 230.387 212.582 226.637C212.582 224.764 213.353 223.055 214.592 221.823C215.828 220.586 217.542 219.819 219.42 219.819H263.093C266.854 219.819 269.93 216.751 269.93 213C269.93 211.127 269.159 209.418 267.92 208.187C266.68 206.95 264.974 206.182 263.093 206.182H241.678C244.413 200.105 246.583 193.723 248.118 187.096C216.534 181.533 179.595 178.332 140.12 178.332C121.541 178.332 103.526 179.041 86.3652 180.373Z" fill="white"/>
</mask>
<g mask="url(#mask2_48_6050)">
<path fill-rule="evenodd" clip-rule="evenodd" d="M38.4082 273H274.929V173.332H38.4082V273Z" fill="#E8EBF2"/>
</g>
<mask id="mask3_48_6050" style="mask-type:luminance" maskUnits="userSpaceOnUse" x="86" y="166" width="164" height="21">
<path fill-rule="evenodd" clip-rule="evenodd" d="M229.775 179.304L219.217 169.627L207.919 178.013L203.183 171.488L184.487 178.013L141.418 171.488L116.383 178.4C124.038 178.144 131.816 178.013 139.697 178.013C179.128 178.013 216.028 181.294 247.578 187C248.792 181.602 249.613 176.05 250 170.373L246.426 166L229.775 179.304ZM86 180.106C95.864 179.32 106.009 178.746 116.383 178.4L97.889 166.332L86 180.106Z" fill="white"/>
</mask>
<g mask="url(#mask3_48_6050)">
<path fill-rule="evenodd" clip-rule="evenodd" d="M81 192H255V161H81V192Z" fill="#E0E2EE"/>
</g>
<mask id="mask4_48_6050" style="mask-type:luminance" maskUnits="userSpaceOnUse" x="84" y="180" width="2" height="2">
<path fill-rule="evenodd" clip-rule="evenodd" d="M84 180.144L85.03 181.001L86 180C85.332 180.044 84.663 180.092 84 180.144Z" fill="white"/>
</mask>
<g mask="url(#mask4_48_6050)">
<path fill-rule="evenodd" clip-rule="evenodd" d="M79 186H91V175H79V186Z" fill="#F1F2F7"/>
</g>
<mask id="mask5_48_6050" style="mask-type:luminance" maskUnits="userSpaceOnUse" x="42" y="162" width="42" height="23">
<path fill-rule="evenodd" clip-rule="evenodd" d="M42 178.668C42.314 180.799 42.693 182.911 43.134 185C56.033 183.017 69.716 181.422 84 180.258L64.109 162L42 178.668Z" fill="white"/>
</mask>
<g mask="url(#mask5_48_6050)">
<path fill-rule="evenodd" clip-rule="evenodd" d="M37 190H89V157H37V190Z" fill="#E0E2EE"/>
</g>
<mask id="mask6_48_6050" style="mask-type:luminance" maskUnits="userSpaceOnUse" x="108" y="217" width="79" height="8">
<path fill-rule="evenodd" clip-rule="evenodd" d="M108.717 221.218C108.717 223.15 126.178 224.718 147.718 224.718C169.257 224.718 186.718 223.15 186.718 221.218C186.718 219.286 169.257 217.718 147.718 217.718C126.178 217.718 108.717 219.286 108.717 221.218Z" fill="white"/>
</mask>
<g mask="url(#mask6_48_6050)">
<path fill-rule="evenodd" clip-rule="evenodd" d="M103.719 229.718H191.719V212.718H103.719V229.718Z" fill="#D8DBEA"/>
</g>
<mask id="mask7_48_6050" style="mask-type:luminance" maskUnits="userSpaceOnUse" x="241" y="233" width="14" height="14">
<path fill-rule="evenodd" clip-rule="evenodd" d="M241 240C241 243.85 244.15 247 248 247C251.85 247 255 243.85 255 240C255 236.151 251.85 233 248 233C244.15 233 241 236.151 241 240Z" fill="white"/>
</mask>
<g mask="url(#mask7_48_6050)">
<path fill-rule="evenodd" clip-rule="evenodd" d="M236 252H260V228H236V252Z" fill="#E1E3EF"/>
</g>
<path fill-rule="evenodd" clip-rule="evenodd" d="M146.687 136.231C143.431 136.231 140.791 133.591 140.791 130.335C140.791 127.08 143.431 124.441 146.687 124.441C149.943 124.441 152.583 127.08 152.583 130.335C152.583 133.591 149.943 136.231 146.687 136.231ZM146.687 122C142.083 122 138.35 125.732 138.35 130.336C138.35 134.942 142.083 138.674 146.687 138.674C151.291 138.674 155.025 134.942 155.025 130.336C155.025 125.732 151.291 122 146.687 122Z" fill="#D8DBEA"/>
<path fill-rule="evenodd" clip-rule="evenodd" d="M169.282 208.5H124.093C119.593 208.5 115.943 204.852 115.943 200.351V158.795C115.943 142.57 129.219 129.295 145.443 129.295H147.931C164.157 129.295 177.431 142.57 177.431 158.795V200.351C177.431 204.852 173.783 208.5 169.282 208.5Z" fill="#D8DBEA"/>
<path fill-rule="evenodd" clip-rule="evenodd" d="M181.135 198.599H180.693C178.899 198.599 177.432 197.131 177.432 195.338V172.158C177.432 170.364 178.899 168.897 180.693 168.897H185.114C186.907 168.897 188.374 170.364 188.374 172.158V191.359C188.374 195.341 185.116 198.599 181.135 198.599Z" fill="url(#paint0_linear_48_6050)"/>
<path fill-rule="evenodd" clip-rule="evenodd" d="M112.683 198.599H112.241C108.258 198.599 105 195.341 105 191.359V172.158C105 170.364 106.467 168.897 108.261 168.897H112.683C114.476 168.897 115.943 170.364 115.943 172.158V195.338C115.943 197.131 114.476 198.599 112.683 198.599Z" fill="url(#paint1_linear_48_6050)"/>
<path fill-rule="evenodd" clip-rule="evenodd" d="M165.966 197.284L146.165 203.55L126.363 197.284V183.748H165.966V197.284Z" fill="#BEC0D6"/>
<path fill-rule="evenodd" clip-rule="evenodd" d="M134.377 200.886L133.448 201.812C132.676 202.581 131.426 202.581 130.653 201.812L129.725 200.886V192.229H134.377V200.886Z" fill="url(#paint2_linear_48_6050)"/>
<path fill-rule="evenodd" clip-rule="evenodd" d="M132.99 199.362C132.99 199.882 132.569 200.302 132.05 200.302C131.53 200.302 131.109 199.882 131.109 199.362C131.109 198.842 131.53 198.422 132.05 198.422C132.569 198.422 132.99 198.842 132.99 199.362Z" fill="#F7FFF6"/>
<path fill-rule="evenodd" clip-rule="evenodd" d="M160.953 200.886L160.024 201.812C159.252 202.581 158.002 202.581 157.229 201.812L156.301 200.886V192.229H160.953V200.886Z" fill="url(#paint3_linear_48_6050)"/>
<path fill-rule="evenodd" clip-rule="evenodd" d="M159.567 199.362C159.567 199.882 159.146 200.302 158.627 200.302C158.107 200.302 157.686 199.882 157.686 199.362C157.686 198.842 158.107 198.422 158.627 198.422C159.146 198.422 159.567 198.842 159.567 199.362Z" fill="#F7FFF6"/>
<path fill-rule="evenodd" clip-rule="evenodd" d="M174.479 160.319V164.727V173.878L122.281 148.878C125.751 140.008 134.422 133.693 144.479 133.693H148.898C162.008 133.693 174.479 147.198 174.479 160.319Z" fill="white"/>
<path fill-rule="evenodd" clip-rule="evenodd" d="M122.279 162.623V158.215V149.064L174.477 174.065C171.008 182.934 162.337 189.249 152.279 189.249H147.861C134.75 189.249 122.279 175.744 122.279 162.623Z" fill="url(#paint4_linear_48_6050)"/>
<path d="M163.479 42C128.839 44.9324 116.107 74.2532 126.537 91.3445C133.897 103.403 146.368 119.701 169.614 115.791C192.86 111.881 194.819 90.3677 182.576 87.4413C170.334 84.516 126.719 98.1639 131.648 129.693C135.206 152.443 166.047 159 166.047 159" stroke="#D7DAE9" stroke-width="2" stroke-dasharray="7"/>
<path fill-rule="evenodd" clip-rule="evenodd" d="M183.501 24C183.501 24 188.464 11.0336 188.988 5.9895C189.263 3.35382 184.895 -3.98451 179.783 2.80345C174.671 9.5914 177.004 17.9143 183.501 24Z" fill="#D8DBEA"/>
<path fill-rule="evenodd" clip-rule="evenodd" d="M165.887 9.87867C160.072 7.9122 157.44 9.44542 156.318 12.5057C155.196 15.5671 156.763 21.3941 165.533 22.7224C174.305 24.0507 183 23.9997 183 23.9997C183 23.9997 171.702 11.8451 165.887 9.87867Z" fill="#D8DBEA"/>
<path fill-rule="evenodd" clip-rule="evenodd" d="M182.516 26.5692C182.648 26.0272 182.823 25.5077 183.017 25C181.944 25.1696 180.851 25.4077 179.752 25.7302C178.559 26.0791 177.446 26.5369 176.399 27.0612C175.945 27.9198 175.577 28.8372 175.338 29.8223C173.864 35.8864 177.343 41.9986 183.188 44C183.821 43.8745 184.457 43.7295 185.094 43.5433C186.874 43.0218 188.516 42.3318 190 41.532C184.292 39.0278 181.007 32.7784 182.516 26.5692Z" fill="#D8DBEA"/>
<path fill-rule="evenodd" clip-rule="evenodd" d="M174.171 29.7317C174.311 29.1326 174.501 28.5597 174.711 28C169.654 31.2394 166.822 36.267 167.289 39.1989C164.058 40.5876 162 41.7576 162 41.7576C162 41.7576 164.438 41.572 167.99 40.8892C169.893 43.6698 175.168 45.5315 181 44.8639C175.717 42.1317 172.735 35.914 174.171 29.7317Z" fill="#D8DBEA"/>
<path fill-rule="evenodd" clip-rule="evenodd" d="M190.917 31.9301C189.578 31.6086 188.747 30.2631 189.07 28.9155C189.391 27.5771 190.745 26.7478 192.083 27.0692C193.429 27.3927 194.251 28.7434 193.931 30.0828C193.607 31.4294 192.264 32.2526 190.917 31.9301ZM196.785 30.1298C195.707 26.3959 190.751 24.4677 184.904 25.128C184.66 25.7066 184.452 26.3169 184.303 26.9491C183.001 32.4913 186.009 38.0663 191.109 40C195.365 37.2924 197.755 33.4586 196.785 30.1298Z" fill="#D8DBEA"/>
<defs>
<linearGradient id="paint0_linear_48_6050" x1="182.903" y1="154.046" x2="163.634" y2="161.145" gradientUnits="userSpaceOnUse">
<stop stop-color="#FF8960"/>
<stop offset="1" stop-color="#FF62A5"/>
</linearGradient>
<linearGradient id="paint1_linear_48_6050" x1="110.471" y1="154.046" x2="91.2012" y2="161.146" gradientUnits="userSpaceOnUse">
<stop stop-color="#FF8960"/>
<stop offset="1" stop-color="#FF62A5"/>
</linearGradient>
<linearGradient id="paint2_linear_48_6050" x1="132.051" y1="187.149" x2="124.359" y2="190.67" gradientUnits="userSpaceOnUse">
<stop stop-color="#FF8960"/>
<stop offset="1" stop-color="#FF62A5"/>
</linearGradient>
<linearGradient id="paint3_linear_48_6050" x1="158.627" y1="187.149" x2="150.935" y2="190.67" gradientUnits="userSpaceOnUse">
<stop stop-color="#FF8960"/>
<stop offset="1" stop-color="#FF62A5"/>
</linearGradient>
<linearGradient id="paint4_linear_48_6050" x1="148.378" y1="128.972" x2="109.53" y2="179.434" gradientUnits="userSpaceOnUse">
<stop stop-color="#FF8960"/>
<stop offset="1" stop-color="#FF62A5"/>
</linearGradient>
</defs>
</svg>
