<svg width="327" height="301" viewBox="0 0 327 301" fill="none" xmlns="http://www.w3.org/2000/svg">
<path fill-rule="evenodd" clip-rule="evenodd" d="M219.718 289.323C219.718 291.461 192.209 293.194 158.274 293.194C124.339 293.194 96.8281 291.461 96.8281 289.323C96.8281 287.186 124.339 285.453 158.274 285.453C192.209 285.453 219.718 287.186 219.718 289.323Z" fill="#DCDCE2"/>
<path d="M150.513 40.6408C116.993 43.4783 104.674 71.8501 114.766 88.3883C121.888 100.057 133.955 115.827 156.45 112.044C178.943 108.26 180.838 87.4432 168.992 84.6115C157.146 81.7808 114.942 94.9871 119.712 125.496C123.155 147.509 152.998 153.854 152.998 153.854" stroke="#DCDCE2" stroke-width="2" stroke-dasharray="7"/>
<path fill-rule="evenodd" clip-rule="evenodd" d="M169.886 23.2233C169.886 23.2233 174.689 10.6765 175.195 5.79567C175.462 3.24528 171.235 -3.85556 166.289 2.71272C161.343 9.281 163.599 17.3345 169.886 23.2233Z" fill="#DCDCE2"/>
<path fill-rule="evenodd" clip-rule="evenodd" d="M152.843 9.55898C147.216 7.65615 144.669 9.13974 143.584 12.101C142.497 15.0633 144.013 20.7017 152.5 21.9871C160.988 23.2724 169.402 23.2231 169.402 23.2231C169.402 23.2231 158.469 11.4618 152.843 9.55898Z" fill="#DCDCE2"/>
<path fill-rule="evenodd" clip-rule="evenodd" d="M168.933 25.7094C169.061 25.1849 169.23 24.6822 169.418 24.1909C168.379 24.355 167.322 24.5855 166.258 24.8975C165.104 25.2351 164.027 25.6781 163.014 26.1855C162.575 27.0163 162.218 27.904 161.987 28.8572C160.561 34.725 163.927 40.6394 169.583 42.576C170.196 42.4546 170.811 42.3143 171.427 42.1341C173.15 41.6295 174.738 40.9618 176.175 40.1879C170.652 37.7647 167.473 31.7176 168.933 25.7094Z" fill="#DCDCE2"/>
<path fill-rule="evenodd" clip-rule="evenodd" d="M160.858 28.7695C160.993 28.1898 161.176 27.6355 161.379 27.0939C156.486 30.2285 153.746 35.0934 154.198 37.9303C151.072 39.2741 149.08 40.4062 149.08 40.4062C149.08 40.4062 151.439 40.2266 154.877 39.5659C156.718 42.2565 161.822 44.058 167.465 43.412C162.353 40.7682 159.467 34.7518 160.858 28.7695Z" fill="#DCDCE2"/>
<path fill-rule="evenodd" clip-rule="evenodd" d="M176.91 31.0326C175.701 30.7413 174.951 29.5217 175.242 28.3003C175.533 27.0873 176.755 26.3356 177.963 26.6269C179.178 26.9201 179.921 28.1444 179.631 29.3583C179.339 30.5788 178.126 31.3249 176.91 31.0326ZM171.26 24.3143C171.019 24.8742 170.814 25.4648 170.668 26.0765C169.385 31.4394 172.348 36.8339 177.373 38.705C181.566 36.0851 183.92 32.3754 182.965 29.1543C181.903 25.5412 177.02 23.6754 171.26 24.3143Z" fill="#DCDCE2"/>
<path fill-rule="evenodd" clip-rule="evenodd" d="M100.461 250.618H220.959C224.014 250.618 226.491 248.134 226.491 245.072V164.251C226.491 161.181 224.008 158.693 220.946 158.693H97.5371C96.0761 158.693 94.8926 159.879 94.8926 161.344V245.036C94.8926 248.119 97.3848 250.618 100.461 250.618Z" fill="#F1F2F7"/>
<path fill-rule="evenodd" clip-rule="evenodd" d="M100.387 249.65H115.009C115.121 249.65 115.213 249.559 115.213 249.446V147.285C115.213 147.172 115.121 147.081 115.009 147.081H100.387C97.3517 147.081 94.8926 149.533 94.8926 152.559V244.173C94.8926 247.198 97.3517 249.65 100.387 249.65Z" fill="#BEC0D6"/>
<path fill-rule="evenodd" clip-rule="evenodd" d="M196.194 215.783H234.03C234.142 215.783 234.233 215.691 234.233 215.576V192.767C234.233 192.653 234.142 192.56 234.03 192.56H196.194C193.154 192.56 190.689 195.055 190.689 198.131V210.212C190.689 213.289 193.154 215.783 196.194 215.783Z" fill="url(#paint0_linear_48_5941)"/>
<path fill-rule="evenodd" clip-rule="evenodd" d="M204.52 147.081H100.519V147.095C97.4013 147.17 94.8926 149.727 94.8926 152.887C94.8926 156.047 97.4013 158.605 100.519 158.68V158.693H210.804C210.917 158.693 211.009 158.601 211.009 158.487V153.618C211.009 150.007 208.103 147.081 204.52 147.081Z" fill="#D8DBEA"/>
<path fill-rule="evenodd" clip-rule="evenodd" d="M209.075 204.172C209.075 206.844 206.909 209.01 204.237 209.01C201.564 209.01 199.398 206.844 199.398 204.172C199.398 201.499 201.564 199.333 204.237 199.333C206.909 199.333 209.075 201.499 209.075 204.172Z" fill="#FEFEFF"/>
<path d="M10.709 179.981V182.884" stroke="#D2D8DF" stroke-width="2.921" stroke-linecap="round"/>
<path d="M4.90234 182.883L6.83762 184.819" stroke="#D2D8DF" stroke-width="2.921" stroke-linecap="round"/>
<path d="M2 188.689H4.90291" stroke="#D2D8DF" stroke-width="2.921" stroke-linecap="round"/>
<path d="M4.90234 194.495L6.83762 192.56" stroke="#D2D8DF" stroke-width="2.921" stroke-linecap="round"/>
<path d="M10.709 197.398V194.495" stroke="#D2D8DF" stroke-width="2.921" stroke-linecap="round"/>
<path d="M16.5154 194.495L14.5801 192.56" stroke="#D2D8DF" stroke-width="2.921" stroke-linecap="round"/>
<path d="M19.4166 188.689H16.5137" stroke="#D2D8DF" stroke-width="2.921" stroke-linecap="round"/>
<path d="M16.5154 182.883L14.5801 184.819" stroke="#D2D8DF" stroke-width="2.921" stroke-linecap="round"/>
<path d="M159.725 60.9612V62.8964" stroke="#D2D8DF" stroke-width="2.921" stroke-linecap="round"/>
<path d="M154.887 65.7993H156.822" stroke="#D2D8DF" stroke-width="2.921" stroke-linecap="round"/>
<path d="M159.725 71.6052V69.6699" stroke="#D2D8DF" stroke-width="2.921" stroke-linecap="round"/>
<path d="M165.531 66.767H163.596" stroke="#D2D8DF" stroke-width="2.921" stroke-linecap="round"/>
<path d="M53.2852 137.405V140.307" stroke="#D2D8DF" stroke-width="2.921" stroke-linecap="round"/>
<path d="M44.5762 146.113H47.4791" stroke="#D2D8DF" stroke-width="2.921" stroke-linecap="round"/>
<path d="M52.3164 153.854V150.951" stroke="#D2D8DF" stroke-width="2.921" stroke-linecap="round"/>
<path d="M61.026 146.113H58.123" stroke="#D2D8DF" stroke-width="2.921" stroke-linecap="round"/>
<path d="M250.683 239.006C252.82 239.006 254.554 240.739 254.554 242.877C254.554 245.015 252.82 246.748 250.683 246.748C248.546 246.748 246.812 245.015 246.812 242.877" stroke="#D2D8DF" stroke-width="2.921" stroke-linecap="round"/>
<path d="M269.003 291.782C269.497 295.237 267.108 298.44 263.67 298.935C260.233 299.431 257.045 297.031 256.553 293.575C256.06 290.119 258.447 286.916 261.886 286.421" stroke="#D2D8DF" stroke-width="2.921" stroke-linecap="round"/>
<path fill-rule="evenodd" clip-rule="evenodd" d="M269.068 202.236C271.414 201.494 275.01 198.589 275.842 195.463C276.597 198.226 279.76 201.494 282.615 201.742C279.402 202.895 276.33 206.32 275.842 209.01C275.51 206.268 271.261 202.635 269.068 202.236Z" fill="#EBECEF"/>
<path fill-rule="evenodd" clip-rule="evenodd" d="M26.1914 237.555C27.3648 237.184 29.1623 235.731 29.5786 234.168C29.9557 235.55 31.5369 237.184 32.9649 237.308C31.3579 237.884 29.8217 239.596 29.5786 240.942C29.4121 239.571 27.2883 237.754 26.1914 237.555Z" fill="#EBECEF"/>
<path fill-rule="evenodd" clip-rule="evenodd" d="M47.4797 109.343C47.4797 110.947 46.1797 112.246 44.5767 112.246C42.9729 112.246 41.6738 110.947 41.6738 109.343C41.6738 107.739 42.9729 106.44 44.5767 106.44C46.1797 106.44 47.4797 107.739 47.4797 109.343Z" fill="#D1D9E0"/>
<path fill-rule="evenodd" clip-rule="evenodd" d="M326.159 103.537C326.159 105.675 324.427 107.408 322.289 107.408C320.15 107.408 318.418 105.675 318.418 103.537C318.418 101.399 320.15 99.6667 322.289 99.6667C324.427 99.6667 326.159 101.399 326.159 103.537Z" fill="#EBECEF"/>
<path fill-rule="evenodd" clip-rule="evenodd" d="M103.603 89.0227C103.603 90.6265 102.303 91.9256 100.7 91.9256C99.0959 91.9256 97.7969 90.6265 97.7969 89.0227C97.7969 87.4188 99.0959 86.1198 100.7 86.1198C102.303 86.1198 103.603 87.4188 103.603 89.0227Z" stroke="#D2D8DF" stroke-width="2.921" stroke-linecap="round"/>
<path fill-rule="evenodd" clip-rule="evenodd" d="M58.5317 272.62C56.5342 273.38 54.2994 272.377 53.5395 270.379C52.7786 268.382 53.7827 266.147 55.7802 265.387C57.7776 264.626 60.0124 265.63 60.7723 267.628C61.5322 269.625 60.5291 271.86 58.5317 272.62Z" stroke="#D2D8DF" stroke-width="2.921" stroke-linecap="round"/>
<defs>
<linearGradient id="paint0_linear_48_5941" x1="212.461" y1="180.948" x2="193.176" y2="217.109" gradientUnits="userSpaceOnUse">
<stop stop-color="#FF8960"/>
<stop offset="1" stop-color="#FF62A5"/>
</linearGradient>
</defs>
</svg>
