<svg width="300" height="300" viewBox="0 0 300 300" fill="none" xmlns="http://www.w3.org/2000/svg">
<mask id="mask0_48_7123" style="mask-type:luminance" maskUnits="userSpaceOnUse" x="0" y="0" width="300" height="300">
<rect width="300" height="300" fill="white"/>
</mask>
<g mask="url(#mask0_48_7123)">
<path d="M306.828 276.298C314.064 261.979 293.384 190.384 149.999 190.384C46.5036 190.384 -0.997959 248.986 9.50368 278.685" fill="url(#paint0_radial_48_7123)"/>
<mask id="mask1_48_7123" style="mask-type:luminance" maskUnits="userSpaceOnUse" x="8" y="190" width="301" height="89">
<path d="M306.828 276.298C314.064 261.979 293.384 190.384 149.999 190.384C46.5036 190.384 -0.997959 248.986 9.50368 278.685" fill="white"/>
</mask>
<g mask="url(#mask1_48_7123)">
<ellipse opacity="0.671968" cx="127.886" cy="230.533" rx="7.88551" ry="4.38001" fill="url(#paint1_linear_48_7123)"/>
<ellipse opacity="0.451707" cx="212.057" cy="241.062" rx="12.4416" ry="6.83282" fill="url(#paint2_linear_48_7123)"/>
<ellipse opacity="0.729957" cx="66.7795" cy="205.626" rx="12.4416" ry="6.83282" fill="url(#paint3_linear_48_7123)"/>
</g>
<path opacity="0.716378" d="M108.765 198.646C103.93 204.118 123.065 209.174 158.269 210.361C196.605 220.806 214.026 223.639 221.068 218.24C228.11 212.842 197.88 195.997 174.214 190.674C150.547 185.352 137.546 188.801 123.036 192.626C121.072 193.144 122.046 192.748 117.589 194.245C113.132 195.741 109.941 197.315 108.765 198.646Z" fill="url(#paint4_linear_48_7123)"/>
<path d="M160.576 167.682C160.576 167.682 145.735 184.216 154.821 194.41C143.25 195.139 135.631 200.663 135.631 200.663L129.33 177.937L160.576 167.682Z" fill="url(#paint5_linear_48_7123)"/>
<path d="M136.09 199.424C136.09 199.424 124.54 194.494 119.924 194.486C115.307 194.478 129.589 177.209 129.589 177.209L137.934 197.842L136.09 199.424Z" fill="url(#paint6_linear_48_7123)"/>
<path fill-rule="evenodd" clip-rule="evenodd" d="M46.2031 175.474C76.3892 205.307 125.106 205.137 155.233 175.01C185.36 144.883 185.53 96.1661 155.697 65.9801L46.2031 175.474Z" fill="url(#paint7_linear_48_7123)"/>
<ellipse cx="101.278" cy="121.707" rx="17.1108" ry="77.4238" transform="rotate(45 101.278 121.707)" fill="url(#paint8_linear_48_7123)"/>
<mask id="mask2_48_7123" style="mask-type:luminance" maskUnits="userSpaceOnUse" x="45" y="65" width="113" height="113">
<ellipse cx="101.278" cy="121.707" rx="17.1108" ry="77.4238" transform="rotate(45 101.278 121.707)" fill="white"/>
</mask>
<g mask="url(#mask2_48_7123)">
<path d="M123.574 126.631L92.1928 111.513L104.306 142.913" fill="url(#paint9_linear_48_7123)"/>
</g>
<ellipse cx="89.1769" cy="108.955" rx="11.0605" ry="11.0989" transform="rotate(-45 89.1769 108.955)" fill="url(#paint10_linear_48_7123)"/>
<path fill-rule="evenodd" clip-rule="evenodd" d="M54.0178 100.166C54.5597 100.166 55.0409 99.9264 55.4015 99.5657C55.8222 99.145 56.032 98.5734 56.0009 97.9413C55.6601 91.9507 57.9081 86.0847 62.1455 81.8474C66.3227 77.6702 72.1285 75.422 78.0587 75.7025C79.2327 75.7345 80.2547 74.8332 80.2829 73.6593C80.3111 72.4854 79.4064 71.4605 78.2324 71.4285C71.1282 71.116 64.1492 73.8138 59.1305 78.8325C54.0518 83.9113 51.3842 90.9806 51.757 98.1451C51.8492 99.3192 52.8441 100.254 54.0178 100.166ZM67.159 104.112C67.6803 104.037 68.1357 103.837 68.4634 103.509C68.8806 103.092 69.1362 102.454 69.0513 101.773C68.6354 98.6158 69.6407 95.5687 71.7862 93.4233C73.9018 91.3077 76.8872 90.3002 79.9806 90.6523C81.1572 90.8157 82.2064 89.9579 82.2579 88.7579C82.3413 87.5898 81.4098 86.4795 80.2035 86.3459C75.842 85.8581 71.6075 87.2852 68.6278 90.2649C65.5586 93.3341 64.1337 97.6302 64.7172 102.087C64.8806 103.264 65.959 104.164 67.159 104.112Z" fill="url(#paint11_linear_48_7123)"/>
<path d="M39.0728 97.5826C38.7138 97.9416 38.2355 98.1815 37.668 98.2124C36.5032 98.2445 35.5492 97.3504 35.4619 96.1859C35.0941 85.5846 39.2055 75.2135 46.7161 67.703C50.5091 63.91 54.9352 61.0074 59.7585 59.1022C60.1368 58.9058 63.3676 58.4498 63.8317 59.8355C64.2957 61.2213 61.2026 63.1158 61.2026 63.1158C56.9607 64.8115 53.0663 67.3738 49.7266 70.7135C43.0539 77.3863 39.4225 86.6215 39.7327 96.088C39.7019 96.5958 39.4618 97.1936 39.0728 97.5826Z" fill="url(#paint12_linear_48_7123)"/>
<mask id="mask3_48_7123" style="mask-type:luminance" maskUnits="userSpaceOnUse" x="35" y="58" width="29" height="41">
<path d="M39.0728 97.5826C38.7138 97.9416 38.2355 98.1815 37.668 98.2124C36.5032 98.2445 35.5492 97.3504 35.4619 96.1859C35.0941 85.5846 39.2055 75.2135 46.7161 67.703C50.5091 63.91 54.9352 61.0074 59.7585 59.1022C60.1368 58.9058 63.3676 58.4498 63.8317 59.8355C64.2957 61.2213 61.2026 63.1158 61.2026 63.1158C56.9607 64.8115 53.0663 67.3738 49.7266 70.7135C43.0539 77.3863 39.4225 86.6215 39.7327 96.088C39.7019 96.5958 39.4618 97.1936 39.0728 97.5826Z" fill="white"/>
</mask>
<g mask="url(#mask3_48_7123)">
</g>
<path fill-rule="evenodd" clip-rule="evenodd" d="M80.7335 53.8371C80.0973 53.201 79.0659 53.201 78.4298 53.8371L74.2066 58.0603L69.9839 53.8375C69.3477 53.2014 68.3163 53.2014 67.6802 53.8375C67.044 54.4737 67.044 55.5051 67.6802 56.1412L71.9029 60.364L67.6792 64.5877C67.043 65.2238 67.043 66.2552 67.6792 66.8914C68.3153 67.5275 69.3467 67.5275 69.9829 66.8914L74.2066 62.6677L78.4308 66.8918C79.0669 67.5279 80.0983 67.5279 80.7345 66.8918C81.3706 66.2556 81.3706 65.2242 80.7345 64.5881L76.5103 60.364L80.7335 56.1408C81.3696 55.5047 81.3696 54.4733 80.7335 53.8371Z" fill="#D3D3D3"/>
<path d="M199.508 173.45C199.508 173.45 198.748 175.669 198.748 177.229C197.988 190.812 199.872 214.957 199.872 214.957H202.799L207.12 179.636L212.976 214.957H215.855C215.855 214.957 216.235 191.567 215.095 177.229C215.095 175.685 214.432 174.205 214.432 174.205L199.508 173.45Z" fill="url(#paint13_linear_48_7123)"/>
<path d="M194.566 154.714L190.868 152.097L190.904 150.059L200.296 144.668L202.633 141.916L206.106 139.711L206.337 140.093L203.76 142.691L202.74 142.823C202.74 142.823 202.72 143.242 202.72 143.955C202.72 144.668 202.183 145.455 202.183 145.455L194.819 150.882L196.405 151.672L194.566 154.714Z" fill="#FFE9E9"/>
<path d="M215.475 159.976L218.389 163.385L219.782 164.127L230.681 154.267L230.232 151.295L219.782 159.976L217.375 157.761L215.475 159.976Z" fill="#FFE9E9"/>
<path d="M230.388 154.314L235.067 152.714L236.003 151.793V149.951C236.003 149.951 235.535 149.03 235.067 149.03C234.599 149.03 230.388 150.872 230.388 150.872C230.388 150.872 229.92 152.254 229.92 152.714C229.92 153.175 230.388 154.314 230.388 154.314Z" fill="#FFE9E9"/>
<path d="M232.198 144.501H235.247C235.665 144.501 236.003 144.84 236.003 145.258V152.803C236.003 153.22 235.665 153.559 235.247 153.559H232.198C231.78 153.559 231.441 153.22 231.441 152.803V145.258C231.441 144.84 231.78 144.501 232.198 144.501Z" fill="#E9E9E9"/>
<path d="M230.41 149.156C230.41 149.156 232.373 148.275 232.863 148.275C233.354 148.275 231.392 150.163 231.392 150.163C231.392 150.163 231.392 152.05 230.41 152.05C229.429 152.05 230.41 149.156 230.41 149.156Z" fill="#FFE9E9"/>
<path d="M218.67 157.333L215.648 161.107L213.489 159.12C213.489 159.12 214.388 164.986 214.785 167.901C215.181 170.816 214.785 175.593 214.785 175.593C214.785 175.593 209.681 176.458 206.582 176.687C203.483 176.915 199.073 175.516 199.073 175.516C199.073 175.516 197.839 166.391 199.073 157.195L193.806 155.259L196.087 151.017C196.087 151.017 197.839 151.672 199.889 151.888C201.939 152.105 203.691 151.888 203.691 151.888L209.393 151.294C209.393 151.294 213.104 151.486 213.955 152.328C214.806 153.17 218.67 157.333 218.67 157.333Z" fill="url(#paint14_linear_48_7123)"/>
<path fill-rule="evenodd" clip-rule="evenodd" d="M208.012 147.144H204.795V151.767V151.767H204.795C204.817 151.8 206.082 153.762 206.082 154.413C206.082 155.065 207.986 151.81 208.011 151.767H208.012V151.767V147.144Z" fill="#FECECD"/>
<ellipse cx="206.218" cy="146.433" rx="2.88999" ry="4.5" fill="#FFE9E9"/>
<path fill-rule="evenodd" clip-rule="evenodd" d="M203.046 146.933C203.277 146.075 203.277 144.183 203.74 144.122C204.202 144.06 205.127 144.418 206.052 143.723C206.514 143.342 206.745 143.294 206.745 143.102C209.057 143.559 207.675 144.936 208.826 146.454C208.946 146.612 209.289 146.454 209.289 146.454C209.289 146.454 209.289 142.718 209.057 142.384C208.826 142.051 207.901 140.709 207.439 141.666C207.439 141.187 206.514 140.693 205.589 141.06C204.665 141.427 203.277 142.145 203.046 143.102C202.815 144.06 202.584 145.975 203.046 146.933Z" fill="#513450"/>
<path d="M200.514 214.702L199.584 215.959C199.041 216.693 198.748 217.582 198.748 218.495C198.748 218.553 198.795 218.599 198.852 218.599H203.215C203.458 218.599 203.655 218.402 203.655 218.16C203.655 217.166 203.43 216.186 202.998 215.292L202.713 214.702H200.514Z" fill="#677285"/>
<path d="M215.574 214.702L216.504 215.959C217.047 216.693 217.34 217.582 217.34 218.495C217.34 218.553 217.293 218.599 217.236 218.599H212.873C212.63 218.599 212.433 218.402 212.433 218.16C212.433 217.166 212.658 216.186 213.09 215.292L213.375 214.702H215.574Z" fill="#677285"/>
</g>
<defs>
<radialGradient id="paint0_radial_48_7123" cx="0" cy="0" r="1" gradientUnits="userSpaceOnUse" gradientTransform="translate(138.187 221.007) rotate(-90) scale(51.3403 536.198)">
<stop stop-color="#EBEDF0" stop-opacity="0.24"/>
<stop offset="0.536775" stop-color="#EBEDF0" stop-opacity="0.845525"/>
<stop offset="1" stop-color="#E0E4E7" stop-opacity="0.01"/>
</radialGradient>
<linearGradient id="paint1_linear_48_7123" x1="121.538" y1="229.372" x2="123.941" y2="234.51" gradientUnits="userSpaceOnUse">
<stop stop-color="#E1E7EA"/>
<stop offset="1" stop-color="#D0D6DC"/>
</linearGradient>
<linearGradient id="paint2_linear_48_7123" x1="201.61" y1="240.423" x2="206.006" y2="249.593" gradientUnits="userSpaceOnUse">
<stop stop-color="#E1E7EA"/>
<stop offset="1" stop-color="#D0D6DC"/>
</linearGradient>
<linearGradient id="paint3_linear_48_7123" x1="58.8465" y1="205.736" x2="61.3338" y2="215.646" gradientUnits="userSpaceOnUse">
<stop stop-color="#FBFBFB"/>
<stop offset="1" stop-color="#D9DFE3"/>
</linearGradient>
<linearGradient id="paint4_linear_48_7123" x1="343.483" y1="213.379" x2="338.797" y2="132.938" gradientUnits="userSpaceOnUse">
<stop stop-color="#D5E1F0" stop-opacity="0.01"/>
<stop offset="1" stop-color="#D9DDE2"/>
</linearGradient>
<linearGradient id="paint5_linear_48_7123" x1="123.431" y1="186.908" x2="149.037" y2="198.038" gradientUnits="userSpaceOnUse">
<stop stop-color="#F8FBFF"/>
<stop offset="1" stop-color="#D9DDE2"/>
</linearGradient>
<linearGradient id="paint6_linear_48_7123" x1="125.953" y1="203.406" x2="139.891" y2="191.472" gradientUnits="userSpaceOnUse">
<stop stop-color="#F8FBFF"/>
<stop offset="1" stop-color="#D9DDE2"/>
</linearGradient>
<linearGradient id="paint7_linear_48_7123" x1="79.3044" y1="226.896" x2="196.675" y2="142.685" gradientUnits="userSpaceOnUse">
<stop stop-color="#F8FBFF"/>
<stop offset="1" stop-color="#D9DDE2"/>
</linearGradient>
<linearGradient id="paint8_linear_48_7123" x1="93.4968" y1="-1.06761" x2="24.806" y2="24.8496" gradientUnits="userSpaceOnUse">
<stop stop-color="#E6ECF3"/>
<stop offset="1" stop-color="#D9DDE2"/>
</linearGradient>
<linearGradient id="paint9_linear_48_7123" x1="98.2958" y1="139.216" x2="117.221" y2="124.787" gradientUnits="userSpaceOnUse">
<stop stop-color="white"/>
<stop offset="1" stop-color="#CCD7E7"/>
</linearGradient>
<linearGradient id="paint10_linear_48_7123" x1="74.0514" y1="105.521" x2="87.6108" y2="123.164" gradientUnits="userSpaceOnUse">
<stop stop-color="#FDFDFD"/>
<stop offset="1" stop-color="#D7DBE0"/>
</linearGradient>
<linearGradient id="paint11_linear_48_7123" x1="107.867" y1="61.0076" x2="70.2227" y2="42.1462" gradientUnits="userSpaceOnUse">
<stop stop-color="#EEEEEE"/>
<stop offset="1" stop-color="#D8D8D8"/>
</linearGradient>
<linearGradient id="paint12_linear_48_7123" x1="92.9216" y1="41.7082" x2="69.4604" y2="25.448" gradientUnits="userSpaceOnUse">
<stop stop-color="#EEEEEE"/>
<stop offset="1" stop-color="#D8D8D8"/>
</linearGradient>
<linearGradient id="paint13_linear_48_7123" x1="215.885" y1="214.957" x2="215.885" y2="173.761" gradientUnits="userSpaceOnUse">
<stop stop-color="#A1A7B8"/>
<stop offset="1" stop-color="#7B8195"/>
</linearGradient>
<linearGradient id="paint14_linear_48_7123" x1="231.248" y1="162.752" x2="209.711" y2="189.69" gradientUnits="userSpaceOnUse">
<stop stop-color="#E5E9F0"/>
<stop offset="1" stop-color="#D2DAE8"/>
</linearGradient>
</defs>
</svg>
