<svg width="270" height="210" viewBox="0 0 270 210" fill="none" xmlns="http://www.w3.org/2000/svg">
<path fill-rule="evenodd" clip-rule="evenodd" d="M146.135 0C121.452 0 98.7654 8.55624 80.8518 22.8715H51.9C48.1386 22.8715 45.061 25.9592 45.061 29.733C45.061 33.5068 48.1386 36.5944 51.9 36.5944H66.6344H70.9521C74.7136 36.5944 77.7911 39.6821 77.7911 43.4559C77.7911 45.3405 77.0206 47.0605 75.7804 48.3001C74.5449 49.5443 72.8306 50.3174 70.9521 50.3174H61.7404H56.6541H31.839C28.0775 50.3174 25 53.405 25 57.1788C25 60.9526 28.0775 64.0403 31.839 64.0403H49.604C44.2413 76.6846 41.2709 90.5973 41.2709 105.209C41.2709 110.511 41.663 115.721 42.4153 120.812C42.7299 122.939 43.1083 125.048 43.5505 127.134C56.4534 125.153 70.1405 123.561 84.4295 122.399L85.5055 123.383L86.5177 122.235C103.684 120.894 121.702 120.181 140.286 120.181C179.77 120.181 216.718 123.401 248.31 129C249.527 123.703 250.348 118.255 250.736 112.683C250.913 110.213 251 107.72 251 105.209C251 47.1016 204.053 0 146.135 0Z" fill="#F1F2F7"/>
<path fill-rule="evenodd" clip-rule="evenodd" d="M11.0723 50H6.9277C3.11746 50 0 53.15 0 57C0 60.85 3.11746 64 6.9277 64H11.0723C14.8825 64 18 60.85 18 57C18 53.15 14.8825 50 11.0723 50Z" fill="#F1F2F7"/>
<mask id="mask0_48_6031" style="mask-type:luminance" maskUnits="userSpaceOnUse" x="43" y="120" width="227" height="91">
<path fill-rule="evenodd" clip-rule="evenodd" d="M269.93 120.332V210H156.669H43.4082V120.332H269.93Z" fill="white"/>
</mask>
<g mask="url(#mask0_48_6031)">
<path fill-rule="evenodd" clip-rule="evenodd" d="M269.93 155C269.93 158.75 266.853 161.818 263.092 161.818H219.419C217.541 161.818 215.828 162.587 214.593 163.823C213.353 165.055 212.582 166.764 212.582 168.637C212.582 172.387 215.659 175.455 219.419 175.455H227.533C229.411 175.455 231.125 176.223 232.361 177.459C233.6 178.691 234.371 180.4 234.371 182.273C234.371 186.023 231.294 189.091 227.533 189.091H208.877C191.35 202.218 169.571 210 145.968 210C95.5589 210 53.4591 174.523 43.4082 127.241C56.308 125.273 69.9918 123.691 84.2773 122.537L85.3526 123.514L86.365 122.373C103.526 121.041 121.541 120.332 140.12 120.332C179.594 120.332 216.534 123.532 248.118 129.096C246.582 135.723 244.413 142.105 241.678 148.182H263.092C264.975 148.182 266.68 148.95 267.919 150.187C269.159 151.418 269.93 153.127 269.93 155Z" fill="#E8EBF2"/>
</g>
<path fill-rule="evenodd" clip-rule="evenodd" d="M250 112.372C249.613 118.05 248.793 123.602 247.578 129C216.028 123.294 179.128 120.013 139.697 120.013C121.138 120.013 103.143 120.74 86 122.106L97.8886 108.331L116.383 120.4L141.418 113.487L184.486 120.013L203.183 113.487L207.919 120.013L219.217 111.627L229.774 121.304L246.426 108L250 112.372Z" fill="#E0E2EE"/>
<path fill-rule="evenodd" clip-rule="evenodd" d="M188.62 118.4C193.356 111.516 196.069 103.352 195.999 94.6159C195.805 70.3164 174.158 50.7902 147.649 51.0017C121.139 51.2137 99.8072 71.0845 100.001 95.3841C100.195 119.683 121.843 139.21 148.351 138.998C157.823 138.923 166.633 136.336 174.037 131.935L193.842 136.599L188.62 118.4Z" fill="#D8DBEA"/>
<path fill-rule="evenodd" clip-rule="evenodd" d="M134 93.9604C134.022 96.7214 131.801 98.9778 129.04 98.9998C126.278 99.0223 124.022 96.8012 124 94.0401C123.978 91.2786 126.198 89.0226 128.96 89.0002C131.721 88.9782 133.977 91.1988 134 93.9604Z" fill="#BEC0D6"/>
<path fill-rule="evenodd" clip-rule="evenodd" d="M152 93.9599C152.022 96.7214 149.801 98.9778 147.04 98.9998C144.278 99.0218 142.022 96.8012 142 94.0401C141.978 91.2786 144.198 89.0222 146.96 89.0002C149.721 88.9782 151.977 91.1988 152 93.9599Z" fill="#BEC0D6"/>
<path fill-rule="evenodd" clip-rule="evenodd" d="M170 93.9599C170.022 96.721 167.801 98.9774 165.04 98.9998C162.278 99.0218 160.022 96.8012 160 94.0396C159.978 91.2781 162.198 89.0222 164.96 89.0002C167.721 88.9777 169.977 91.1988 170 93.9599Z" fill="#BEC0D6"/>
<path fill-rule="evenodd" clip-rule="evenodd" d="M86 122L85.0301 123L84 122.143C84.6633 122.092 85.3319 122.044 86 122Z" fill="#F1F2F7"/>
<path fill-rule="evenodd" clip-rule="evenodd" d="M95 129C95 132.176 96.0156 135.132 97.761 137.621L95.9086 144.26L103.121 142.505C105.833 144.082 109.048 145 112.5 145C122.165 145 130 137.837 130 129C130 120.163 122.165 113 112.5 113C102.835 113 95 120.163 95 129Z" fill="url(#paint0_linear_48_6031)"/>
<path fill-rule="evenodd" clip-rule="evenodd" d="M117 129C117 130.105 117.895 131 119 131C120.104 131 121 130.105 121 129C121 127.896 120.104 127 119 127C117.895 127 117 127.896 117 129Z" fill="white"/>
<path fill-rule="evenodd" clip-rule="evenodd" d="M111 129C111 130.105 111.895 131 113 131C114.104 131 115 130.105 115 129C115 127.896 114.104 127 113 127C111.895 127 111 127.896 111 129Z" fill="white"/>
<path fill-rule="evenodd" clip-rule="evenodd" d="M104 129C104 130.105 104.895 131 106 131C107.104 131 108 130.105 108 129C108 127.896 107.104 127 106 127C104.895 127 104 127.896 104 129Z" fill="white"/>
<path fill-rule="evenodd" clip-rule="evenodd" d="M84 122.258C69.7159 123.422 56.0334 125.016 43.1349 127C42.6928 124.911 42.3145 122.799 42 120.668L64.1094 104L84 122.258Z" fill="#E0E2EE"/>
<path fill-rule="evenodd" clip-rule="evenodd" d="M184 156.5C184 158.433 166.539 160 145 160C123.461 160 106 158.433 106 156.5C106 154.568 123.461 153 145 153C166.539 153 184 154.568 184 156.5Z" fill="#D8DBEA"/>
<path fill-rule="evenodd" clip-rule="evenodd" d="M248 189C244.15 189 241 185.85 241 182C241 178.15 244.15 175 248 175C251.85 175 255 178.15 255 182C255 185.85 251.85 189 248 189Z" fill="#E1E3EF"/>
<defs>
<linearGradient id="paint0_linear_48_6031" x1="112.5" y1="97" x2="80.6281" y2="131.86" gradientUnits="userSpaceOnUse">
<stop stop-color="#FF8960"/>
<stop offset="1" stop-color="#FF62A5"/>
</linearGradient>
</defs>
</svg>
