<svg width="306" height="251" viewBox="0 0 306 251" fill="none" xmlns="http://www.w3.org/2000/svg">
<path d="M10.293 115.112V117.703" stroke="#D2D8DF" stroke-width="2.921" stroke-linecap="round"/>
<path d="M4.47656 116.516L6.59325 118.695" stroke="#D2D8DF" stroke-width="2.921" stroke-linecap="round"/>
<path d="M2 122.316H4.99296" stroke="#D2D8DF" stroke-width="2.921" stroke-linecap="round"/>
<path d="M4.23242 128.22L6.34911 126.041" stroke="#D2D8DF" stroke-width="2.921" stroke-linecap="round"/>
<path d="M10.293 128.927V126.337" stroke="#D2D8DF" stroke-width="2.921" stroke-linecap="round"/>
<path d="M14.6097 127.201L12.8828 125.474" stroke="#D2D8DF" stroke-width="2.921" stroke-linecap="round"/>
<path d="M18.065 122.883H15.4746" stroke="#D2D8DF" stroke-width="2.921" stroke-linecap="round"/>
<path d="M16.3382 116.839L14.6113 118.566" stroke="#D2D8DF" stroke-width="2.921" stroke-linecap="round"/>
<path d="M149.309 2V3.7269" stroke="#D2D8DF" stroke-width="2.921" stroke-linecap="round"/>
<path d="M144.129 7.18066H145.856" stroke="#D2D8DF" stroke-width="2.921" stroke-linecap="round"/>
<path d="M149.309 12.3617V10.6348" stroke="#D2D8DF" stroke-width="2.921" stroke-linecap="round"/>
<path d="M153.627 7.18069H151.9" stroke="#D2D8DF" stroke-width="2.921" stroke-linecap="round"/>
<path d="M49.1484 74.5293V77.1196" stroke="#D2D8DF" stroke-width="2.921" stroke-linecap="round"/>
<path d="M41.3789 82.3008H43.9693" stroke="#D2D8DF" stroke-width="2.921" stroke-linecap="round"/>
<path d="M49.1484 89.2085V86.6182" stroke="#D2D8DF" stroke-width="2.921" stroke-linecap="round"/>
<path d="M56.0571 82.3008H53.4668" stroke="#D2D8DF" stroke-width="2.921" stroke-linecap="round"/>
<path d="M235.01 168.681C237.074 168.681 238.747 170.355 238.747 172.419C238.747 174.483 237.074 176.157 235.01 176.157C232.947 176.157 231.273 174.483 231.273 172.419" stroke="#D2D8DF" stroke-width="2.921" stroke-linecap="round"/>
<path d="M252.068 217.819C252.53 221.042 250.293 224.029 247.071 224.491C243.848 224.952 240.862 222.714 240.4 219.492C239.938 216.269 242.176 213.282 245.397 212.82" stroke="#D2D8DF" stroke-width="2.921" stroke-linecap="round"/>
<path fill-rule="evenodd" clip-rule="evenodd" d="M252.113 134.768C254.332 134.076 257.733 131.362 258.521 128.442C259.235 131.023 262.228 134.076 264.928 134.307C261.888 135.383 258.982 138.581 258.521 141.093C258.207 138.532 254.187 135.141 252.113 134.768Z" fill="#EBECEE"/>
<path fill-rule="evenodd" clip-rule="evenodd" d="M24.3438 167.529C25.4536 167.183 27.1535 165.826 27.5471 164.366C27.9041 165.656 29.4002 167.183 30.7505 167.298C29.2309 167.836 27.778 169.435 27.5471 170.691C27.3902 169.411 25.3803 167.715 24.3438 167.529Z" fill="#EBECEE"/>
<path fill-rule="evenodd" clip-rule="evenodd" d="M44.9399 47.416C44.9399 49.0174 43.6424 50.3145 42.0422 50.3145C40.4413 50.3145 39.1445 49.0174 39.1445 47.416C39.1445 45.8154 40.4413 44.5176 42.0422 44.5176C43.6424 44.5176 44.9399 45.8154 44.9399 47.416Z" fill="#D1D8DF"/>
<path fill-rule="evenodd" clip-rule="evenodd" d="M216.058 229.397C216.058 232.073 213.889 234.242 211.215 234.242C208.539 234.242 206.371 232.073 206.371 229.397C206.371 226.722 208.539 224.553 211.215 224.553C213.889 224.553 216.058 226.722 216.058 229.397Z" fill="#EBECEE"/>
<path fill-rule="evenodd" clip-rule="evenodd" d="M305.519 42.0733C305.519 44.196 303.799 45.9161 301.678 45.9161C299.556 45.9161 297.836 44.196 297.836 42.0733C297.836 39.9506 299.556 38.2305 301.678 38.2305C303.799 38.2305 305.519 39.9506 305.519 42.0733Z" fill="#EBECEE"/>
<path fill-rule="evenodd" clip-rule="evenodd" d="M99.0931 221.548C99.0931 222.886 98.009 223.97 96.6712 223.97C95.3342 223.97 94.25 222.886 94.25 221.548C94.25 220.209 95.3342 219.125 96.6712 219.125C98.009 219.125 99.0931 220.209 99.0931 221.548Z" stroke="#D2D8DF" stroke-width="2.921" stroke-linecap="round"/>
<path fill-rule="evenodd" clip-rule="evenodd" d="M97.6547 28.7949C97.6547 30.3963 96.3573 31.6934 94.7571 31.6934C93.1568 31.6934 91.8594 30.3963 91.8594 28.7949C91.8594 27.1943 93.1568 25.8965 94.7571 25.8965C96.3573 25.8965 97.6547 27.1943 97.6547 28.7949Z" stroke="#D2D8DF" stroke-width="2.921" stroke-linecap="round"/>
<path fill-rule="evenodd" clip-rule="evenodd" d="M171.567 248.374C169.715 249.079 167.643 248.148 166.939 246.297C166.234 244.445 167.164 242.371 169.016 241.667C170.867 240.963 172.939 241.892 173.644 243.744C174.349 245.597 173.419 247.669 171.567 248.374Z" stroke="#D2D8DF" stroke-width="2.921" stroke-linecap="round"/>
<path fill-rule="evenodd" clip-rule="evenodd" d="M120.812 188.466H137.373L128.698 216.068L167.342 177.031H144.076L157.089 119.854L120.812 188.466Z" fill="url(#paint0_linear_48_5907)"/>
<path fill-rule="evenodd" clip-rule="evenodd" d="M219.88 102.505C215.797 99.6033 211.03 97.6036 205.864 96.8057C203.038 72.1171 182.08 52.9434 156.635 52.9434C140.778 52.9434 126.664 60.3932 117.591 71.9833C114.408 70.9169 111.009 70.335 107.465 70.335C91.1963 70.335 77.78 82.5303 75.8433 98.2771C62.3795 102.451 52.6035 115.003 52.6035 129.835C52.6035 148.028 67.3081 162.782 85.4837 162.867C86.4197 162.993 87.3712 163.067 88.3417 163.067H196.374C198.368 163.441 200.415 163.645 202.517 163.645C220.766 163.645 235.553 148.854 235.553 130.609C235.553 118.733 229.285 108.326 219.88 102.505Z" fill="#F1F2F7"/>
<path fill-rule="evenodd" clip-rule="evenodd" d="M128.043 83.7923C124.219 82.2411 119.965 81.3701 115.48 81.3701C98.8725 81.3701 85.4141 93.2247 85.4141 107.845C85.4141 109.324 85.555 110.772 85.8209 112.183C98.7335 93.9416 107.631 86.6975 128.043 83.7923Z" fill="#E0E2EE"/>
<defs>
<linearGradient id="paint0_linear_48_5907" x1="144.077" y1="71.7478" x2="68.6572" y2="108.222" gradientUnits="userSpaceOnUse">
<stop stop-color="#FF8960"/>
<stop offset="1" stop-color="#FF62A5"/>
</linearGradient>
</defs>
</svg>
