<svg width="300" height="300" viewBox="0 0 300 300" fill="none" xmlns="http://www.w3.org/2000/svg">
<path d="M298.752 276.3C305.987 261.98 285.308 190.385 141.923 190.385C38.4274 190.385 -9.07413 248.987 1.42751 278.686" fill="url(#paint0_radial_48_6143)"/>
<mask id="mask0_48_6143" style="mask-type:luminance" maskUnits="userSpaceOnUse" x="0" y="190" width="300" height="89">
<path d="M298.752 276.3C305.987 261.98 285.308 190.385 141.923 190.385C38.4274 190.385 -9.07413 248.987 1.42751 278.686" fill="white"/>
</mask>
<g mask="url(#mask0_48_6143)">
<ellipse opacity="0.671968" cx="119.807" cy="230.535" rx="7.88551" ry="4.38001" fill="url(#paint1_linear_48_6143)"/>
<ellipse opacity="0.729957" cx="200.293" cy="223.849" rx="12.4416" ry="6.83282" fill="url(#paint2_linear_48_6143)"/>
<ellipse opacity="0.729957" cx="58.7033" cy="205.627" rx="12.4416" ry="6.83282" fill="url(#paint3_linear_48_6143)"/>
</g>
<g opacity="0.320685">
<ellipse cx="232.689" cy="70.9654" rx="8.41121" ry="8.40963" fill="url(#paint4_linear_48_6143)"/>
<path d="M240.344 76.0981C237.948 75.9874 234.813 75.2943 231.602 74.1258C228.391 72.9572 225.545 71.4738 223.638 70.0188C222.833 69.4043 222.245 68.8302 221.915 68.3635C222.012 68.3383 222.121 68.3145 222.243 68.293C223.168 68.1304 224.518 68.1532 226.126 68.3799L226.713 64.2155C222.053 63.5586 218.673 64.1529 217.699 66.8293C216.282 70.7223 222.053 75.1262 230.164 78.0778C238.275 81.0295 245.527 81.3646 246.944 77.4718C247.938 74.7418 245.761 72.585 241.139 69.7241L238.926 73.3002C240.498 74.2733 241.672 75.1331 242.387 75.8409C242.436 75.8903 242.483 75.9381 242.527 75.9843C241.984 76.0956 241.239 76.1395 240.344 76.0981Z" fill="url(#paint5_linear_48_6143)"/>
<path d="M241.116 70.9654C241.116 66.3209 237.35 62.5558 232.704 62.5558C228.059 62.5558 225.149 65.5253 224.549 68.8735C224.549 68.8735 229.384 71.9005 231.617 72.551C232.329 72.7586 233.035 73.0277 233.753 73.2664C234.557 73.5333 235.376 73.7687 236.204 73.9729C236.771 74.1127 237.549 74.3287 238.274 74.4636C239.231 74.6416 240.088 74.721 240.155 74.721C240.274 74.721 240.404 74.1922 240.672 73.576C240.939 72.9598 241.116 70.9654 241.116 70.9654Z" fill="url(#paint6_linear_48_6143)"/>
</g>
<circle opacity="0.418364" cx="47.8858" cy="120.576" r="9.80769" fill="url(#paint7_linear_48_6143)"/>
<ellipse opacity="0.425921" cx="154.038" cy="204.23" rx="29.4231" ry="8.07692" fill="url(#paint8_linear_48_6143)"/>
<path d="M133.729 158.077C133.729 158.077 132.923 160.41 132.923 162.05C132.117 176.331 134.114 199.616 134.114 199.616H137.216L141.795 164.581L148.001 199.616H151.052C151.052 199.616 151.455 177.125 150.246 162.05C150.246 160.427 149.544 158.871 149.544 158.871L133.729 158.077Z" fill="url(#paint9_linear_48_6143)"/>
<path d="M130.999 140L124.85 141.455L122.752 140.898L109.422 138.962L106.203 138.962L106.19 134.701L106.984 136.337L108.413 136.786C108.413 136.786 109.183 135.23 109.422 135.496C109.66 135.761 109.764 136.854 109.764 136.854L110.955 137.471L125.146 137.471L128.499 135.5L130.999 140Z" fill="#FDE7E6"/>
<path d="M151.001 140L157.334 141.455L159.432 140.898L172.762 138.962L176.409 137.103L177.648 134.628L177.185 134.562L175.2 136.337L173.771 136.786C173.771 136.786 173.001 135.23 172.762 135.496C172.524 135.761 172.42 136.854 172.42 136.854L171.229 137.471L157.038 137.471L153.501 135.5L151.001 140Z" fill="#FDE7E6"/>
<path d="M154.615 135.761L152.664 140.513H147.893L150 160.247C150 160.247 143.983 161.258 140.802 161.504C137.62 161.749 133.094 160.247 133.094 160.247C133.094 160.247 133.094 153.366 133.094 141.015L128.857 140.513L128.077 135.761C128.077 135.761 132.033 132.984 133.094 132.522C134.154 132.06 137.737 131.538 137.737 131.538L143.406 131.538C143.406 131.538 147.91 131.712 148.761 132.522C149.613 133.332 154.615 135.761 154.615 135.761Z" fill="url(#paint10_linear_48_6143)"/>
<path fill-rule="evenodd" clip-rule="evenodd" d="M143.021 128.077H139.471V132.789H143.021V128.077ZM140.891 135.485C140.891 134.817 139.471 132.789 139.471 132.789H143.021C143.021 132.789 140.891 136.154 140.891 135.485Z" fill="#FECECD"/>
<ellipse cx="141.077" cy="126.642" rx="3.7368" ry="5.29623" fill="#FFE9E9"/>
<path fill-rule="evenodd" clip-rule="evenodd" d="M136.976 126.986C137.275 125.987 137.275 123.785 137.873 123.713C138.471 123.641 139.667 124.058 140.862 123.249C141.46 122.805 141.759 122.749 141.759 122.526C144.749 123.058 142.961 124.661 144.45 126.428C144.605 126.612 145.048 126.428 145.048 126.428C145.048 126.428 145.048 122.078 144.749 121.69C144.45 121.302 143.254 119.739 142.656 120.854C142.656 120.297 141.46 119.721 140.264 120.148C139.069 120.575 137.275 121.411 136.976 122.526C136.677 123.641 136.378 125.871 136.976 126.986Z" fill="#513450"/>
<path d="M134.353 199.615L133.523 201.028C132.978 201.954 132.691 203.009 132.691 204.083C132.691 204.165 132.757 204.231 132.839 204.231H136.696C137.033 204.231 137.307 203.957 137.307 203.62C137.307 202.498 137.101 201.386 136.699 200.339L136.421 199.615H134.353Z" fill="#677285"/>
<path d="M150.647 199.615L151.477 201.028C152.022 201.954 152.309 203.009 152.309 204.083C152.309 204.165 152.243 204.231 152.161 204.231H148.304C147.967 204.231 147.693 203.957 147.693 203.62C147.693 202.498 147.899 201.386 148.301 200.339L148.579 199.615H150.647Z" fill="#677285"/>
<path d="M106.203 26.293H109.665V202.255C109.665 203.21 108.89 203.985 107.934 203.985C106.978 203.985 106.203 203.21 106.203 202.255V26.293Z" fill="#D8D8D8"/>
<path d="M106.154 26.3961L127.394 31.448C135.217 33.3089 143.46 31.9755 150.298 27.7429C159.946 21.7712 171.747 20.3891 182.514 23.97L189.808 26.3961L184.039 69.5646L182.415 68.902C171.968 64.6393 160.038 66.2942 151.146 73.2397C144.029 78.7981 134.459 80.0621 126.143 76.5421L106.154 68.0805V26.3961Z" fill="#8ED28E"/>
<path d="M157.374 36.5195C158.525 35.2137 160.507 35.1098 161.789 36.2881C163.056 37.4534 163.16 39.4355 162.021 40.727L143.01 62.2891C142.451 62.923 141.674 63.2932 140.851 63.3363C140.028 63.3795 139.217 63.0925 138.595 62.5206L127.463 52.2852C126.195 51.1197 126.091 49.1377 127.23 47.8462C128.381 46.5406 130.363 46.4367 131.645 47.6148L140.451 55.7121L157.374 36.5195Z" fill="white"/>
<mask id="mask1_48_6143" style="mask-type:luminance" maskUnits="userSpaceOnUse" x="126" y="35" width="37" height="29">
<path d="M157.374 36.5195C158.525 35.2137 160.507 35.1098 161.789 36.2881C163.056 37.4534 163.16 39.4355 162.021 40.727L143.01 62.2891C142.451 62.923 141.674 63.2932 140.851 63.3363C140.028 63.3795 139.217 63.0925 138.595 62.5206L127.463 52.2852C126.195 51.1197 126.091 49.1377 127.23 47.8462C128.381 46.5406 130.363 46.4367 131.645 47.6148L140.451 55.7121L157.374 36.5195Z" fill="white"/>
</mask>
<g mask="url(#mask1_48_6143)">
<path opacity="0.8" d="M140.593 55.5294L133.208 63.4267L125.128 58.073L136.653 46.4924L140.593 55.5294Z" fill="url(#paint11_linear_48_6143)"/>
</g>
<path d="M105.461 135.649C105.461 135.649 107.192 134.784 107.192 135.072C107.192 135.361 107.192 138.534 107.192 138.534L106.038 139.111L105.461 135.649Z" fill="#FFE9E9"/>
<defs>
<radialGradient id="paint0_radial_48_6143" cx="0" cy="0" r="1" gradientUnits="userSpaceOnUse" gradientTransform="translate(130.111 221.008) rotate(-90) scale(51.3403 536.198)">
<stop stop-color="#EBEDF0" stop-opacity="0.24"/>
<stop offset="0.536775" stop-color="#EBEDF0" stop-opacity="0.845525"/>
<stop offset="1" stop-color="#E0E4E7" stop-opacity="0.01"/>
</radialGradient>
<linearGradient id="paint1_linear_48_6143" x1="113.46" y1="229.374" x2="115.863" y2="234.511" gradientUnits="userSpaceOnUse">
<stop stop-color="#E1E7EA"/>
<stop offset="1" stop-color="#D0D6DC"/>
</linearGradient>
<linearGradient id="paint2_linear_48_6143" x1="189.846" y1="223.21" x2="194.242" y2="232.379" gradientUnits="userSpaceOnUse">
<stop stop-color="#E1E7EA"/>
<stop offset="1" stop-color="#D0D6DC"/>
</linearGradient>
<linearGradient id="paint3_linear_48_6143" x1="50.7703" y1="205.738" x2="53.2577" y2="215.647" gradientUnits="userSpaceOnUse">
<stop stop-color="#FBFBFB"/>
<stop offset="1" stop-color="#D9DFE3"/>
</linearGradient>
<linearGradient id="paint4_linear_48_6143" x1="221.198" y1="65.1746" x2="225.404" y2="79.7147" gradientUnits="userSpaceOnUse">
<stop stop-color="#ECECEC"/>
<stop offset="0.717538" stop-color="#E1E7EA"/>
<stop offset="1" stop-color="#BCC3CA"/>
</linearGradient>
<linearGradient id="paint5_linear_48_6143" x1="224.763" y1="74.2534" x2="245.384" y2="81.7585" gradientUnits="userSpaceOnUse">
<stop stop-color="#BAC6D2"/>
<stop offset="1" stop-color="#7F8F9F"/>
</linearGradient>
<linearGradient id="paint6_linear_48_6143" x1="229.594" y1="70.2417" x2="232.344" y2="75.798" gradientUnits="userSpaceOnUse">
<stop stop-color="#E1E7EA"/>
<stop offset="1" stop-color="#D0D6DC"/>
</linearGradient>
<linearGradient id="paint7_linear_48_6143" x1="60.7797" y1="123.488" x2="50.9863" y2="106.948" gradientUnits="userSpaceOnUse">
<stop stop-color="#DAE2E6"/>
<stop offset="0.58" stop-color="#E3EBEF"/>
<stop offset="1" stop-color="#EDF6F9"/>
</linearGradient>
<linearGradient id="paint8_linear_48_6143" x1="131.953" y1="205.188" x2="148.479" y2="230.897" gradientUnits="userSpaceOnUse">
<stop stop-color="#C4CDD1"/>
<stop offset="1" stop-color="#C6CFD3" stop-opacity="0.01"/>
</linearGradient>
<linearGradient id="paint9_linear_48_6143" x1="151.084" y1="199.616" x2="151.084" y2="158.389" gradientUnits="userSpaceOnUse">
<stop stop-color="#A1A7B8"/>
<stop offset="1" stop-color="#7B8195"/>
</linearGradient>
<linearGradient id="paint10_linear_48_6143" x1="168.041" y1="145.236" x2="142.501" y2="174.448" gradientUnits="userSpaceOnUse">
<stop stop-color="#E5E9F0"/>
<stop offset="1" stop-color="#D2DAE8"/>
</linearGradient>
<linearGradient id="paint11_linear_48_6143" x1="128.827" y1="55.145" x2="136.297" y2="60.4144" gradientUnits="userSpaceOnUse">
<stop stop-color="#67D666" stop-opacity="0.01"/>
<stop offset="1" stop-color="#67D666" stop-opacity="0.2"/>
</linearGradient>
</defs>
</svg>
